<?xml version="1.0" encoding="UTF-8" standalone="no"?>
<!-- Created with Inkscape (http://www.inkscape.org/) -->

<svg
   xmlns:dc="http://purl.org/dc/elements/1.1/"
   xmlns:cc="http://creativecommons.org/ns#"
   xmlns:rdf="http://www.w3.org/1999/02/22-rdf-syntax-ns#"
   xmlns:svg="http://www.w3.org/2000/svg"
   xmlns="http://www.w3.org/2000/svg"
   xmlns:sodipodi="http://sodipodi.sourceforge.net/DTD/sodipodi-0.dtd"
   xmlns:inkscape="http://www.inkscape.org/namespaces/inkscape"
   width="512"
   height="512"
   viewBox="0 0 512.00001 512.00001"
   id="svg2"
   version="1.1"
   inkscape:version="0.91 r13725"
   sodipodi:docname="piggysheet.svg"
   inkscape:export-filename="/Users/danielsavage/Projects/pre-indie-jam/asset/img/piggysheet.png"
   inkscape:export-xdpi="90"
   inkscape:export-ydpi="90">
  <defs
     id="defs4">
    <inkscape:path-effect
       effect="bend_path"
       id="path-effect6103"
       is_visible="true"
       bendpath="m 173.55074,617.52321 c 11.10756,4.38415 22.20566,8.90077 34.26215,0"
       prop_scale="1"
       scale_y_rel="false"
       vertical="false"
       bendpath-nodetypes="cc" />
    <marker
       inkscape:stockid="Arrow1Mend"
       orient="auto"
       refY="0"
       refX="0"
       id="marker5696"
       style="overflow:visible"
       inkscape:isstock="true">
      <path
         id="path5698"
         d="M 0,0 5,-5 -12.5,0 5,5 0,0 Z"
         style="fill:#000000;fill-opacity:1;fill-rule:evenodd;stroke:#000000;stroke-width:1pt;stroke-opacity:1"
         transform="matrix(-0.4,0,0,-0.4,-4,0)"
         inkscape:connector-curvature="0" />
    </marker>
    <marker
       inkscape:stockid="Arrow1Lstart"
       orient="auto"
       refY="0"
       refX="0"
       id="Arrow1Lstart"
       style="overflow:visible"
       inkscape:isstock="true">
      <path
         id="path4804"
         d="M 0,0 5,-5 -12.5,0 5,5 0,0 Z"
         style="fill:#000000;fill-opacity:1;fill-rule:evenodd;stroke:#000000;stroke-width:1pt;stroke-opacity:1"
         transform="matrix(0.8,0,0,0.8,10,0)"
         inkscape:connector-curvature="0" />
    </marker>
    <inkscape:path-effect
       effect="bend_path"
       id="path-effect4689"
       is_visible="true"
       bendpath="m 54.689375,75.514176 c 5.304126,0.492336 10.113557,2.097736 16.568826,0"
       prop_scale="1"
       scale_y_rel="false"
       vertical="false"
       bendpath-nodetypes="cc" />
    <inkscape:path-effect
       effect="bend_path"
       id="path-effect4621"
       is_visible="true"
       bendpath="m 53.847817,77.232808 c 6.892293,4.265026 12.413398,2.131174 17.935077,0"
       prop_scale="1"
       scale_y_rel="false"
       vertical="false"
       bendpath-nodetypes="cc" />
    <inkscape:path-effect
       effect="bend_path"
       id="path-effect4616"
       is_visible="true"
       bendpath="m 59.063747,84.043467 c 5.350636,-0.981899 10.61458,-2.397255 16.641046,0"
       prop_scale="1"
       scale_y_rel="false"
       vertical="false"
       bendpath-nodetypes="cc" />
    <inkscape:path-effect
       effect="bend_path"
       id="path-effect4614"
       is_visible="true"
       bendpath="m 61.627712,78.601791 5.193751,0"
       prop_scale="1"
       scale_y_rel="false"
       vertical="false" />
    <inkscape:path-effect
       effect="powerstroke"
       id="path-effect4144"
       is_visible="true"
       offset_points="0,1.1893895 | 1.5,1.1893895 | 3,1.1893895"
       sort_points="true"
       interpolator_type="Linear"
       interpolator_beta="0.2"
       start_linecap_type="round"
       linejoin_type="round"
       miter_limit="4"
       end_linecap_type="round" />
  </defs>
  <sodipodi:namedview
     id="base"
     pagecolor="#ffffff"
     bordercolor="#666666"
     borderopacity="1.0"
     inkscape:pageopacity="0.0"
     inkscape:pageshadow="2"
     inkscape:zoom="1.3138653"
     inkscape:cx="287.62179"
     inkscape:cy="203.27344"
     inkscape:document-units="px"
     inkscape:current-layer="g6297"
     showgrid="true"
     inkscape:window-width="1280"
     inkscape:window-height="700"
     inkscape:window-x="0"
     inkscape:window-y="1"
     inkscape:window-maximized="1"
     gridtolerance="10"
     units="px">
    <inkscape:grid
       type="xygrid"
       id="grid6019"
       spacingx="64.000001"
       spacingy="64.000001"
       empspacing="1"
       color="#fc3fff"
       opacity="0.1254902"
       empcolor="#ff3fe5"
       empopacity="0.25098039"
       originx="64.000001"
       originy="64.000001" />
    <inkscape:grid
       type="xygrid"
       id="grid6040"
       spacingx="128"
       spacingy="128"
       empspacing="1"
       dotted="false" />
  </sodipodi:namedview>
  <metadata
     id="metadata7">
    <rdf:RDF>
      <cc:Work
         rdf:about="">
        <dc:format>image/svg+xml</dc:format>
        <dc:type
           rdf:resource="http://purl.org/dc/dcmitype/StillImage" />
        <dc:title></dc:title>
      </cc:Work>
    </rdf:RDF>
  </metadata>
  <g
     inkscape:label="walking right"
     inkscape:groupmode="layer"
     id="layer1"
     transform="translate(0,-540.36216)"
     style="display:inline"
     sodipodi:insensitive="true">
    <g
       id="g6228"
       inkscape:transform-center-x="-1.6598303"
       inkscape:transform-center-y="4.0726156"
       transform="matrix(0.951806,-0.30670072,0.30670072,0.951806,-178.46277,92.363697)">
      <path
         inkscape:connector-curvature="0"
         id="path6048-2"
         d="m 200.88342,615.66874 c 1.27169,0.59992 1.87112,1.87474 2.03476,3.00321 0.074,0.43452 0.16656,1.94907 0.20911,2.21107 0.25709,1.58217 0.0475,2.59326 1.02269,2.68991 1.11198,0.1102 1.59016,-1.24509 1.71981,-3.3723 0.0364,-0.59778 0.013,-1.3249 -0.133,-2.12461 -0.45504,-2.20121 -1.87295,-4.24419 -3.9244,-5.35637 -0.12238,0.32591 -0.86171,0.9829 -1.05957,1.29639 -0.31366,0.49697 -0.27833,0.90995 0.13057,1.65269 0,0 1e-5,10e-6 1e-5,10e-6 z"
         style="display:inline;fill:#009591;fill-opacity:1;fill-rule:evenodd;stroke:none;stroke-width:1.11215699px;stroke-linecap:butt;stroke-linejoin:miter;stroke-opacity:1" />
      <path
         inkscape:connector-curvature="0"
         id="path6050-0"
         d="m 204.55082,615.50464 c 1.38658,0.99126 1.82504,2.64164 1.77548,4.02299 -0.006,0.53427 -0.22399,2.36066 -0.23003,2.68236 -0.0365,1.94271 -0.5057,3.10314 0.63638,3.42988 1.3023,0.37256 2.1665,-1.14013 2.78242,-3.64901 0.17308,-0.70504 0.30272,-1.57732 0.3021,-2.56274 -0.0654,-2.72393 -1.31342,-5.46795 -3.51889,-7.23923 -0.21663,0.36214 -1.24084,0.98538 -1.5448,1.31636 -0.48186,0.52469 -0.52928,1.02488 -0.20267,1.99937 0,0 10e-6,2e-5 10e-6,2e-5 z"
         style="display:inline;fill:#009591;fill-opacity:1;fill-rule:evenodd;stroke:none;stroke-width:1.11215699px;stroke-linecap:butt;stroke-linejoin:miter;stroke-opacity:1" />
    </g>
    <g
       id="g6224"
       inkscape:transform-center-x="1.7697377"
       inkscape:transform-center-y="2.6096172"
       transform="matrix(0.89978123,0.43634131,-0.43634131,0.89978123,285.60496,-17.099579)">
      <path
         style="display:inline;fill:#009591;fill-opacity:1;fill-rule:evenodd;stroke:none;stroke-width:1.11215699px;stroke-linecap:butt;stroke-linejoin:miter;stroke-opacity:1"
         d="m 180.76912,614.06014 c -1.14805,1.20231 -1.57759,2.83903 -1.68258,4.19964 -0.006,0.0753 -0.0106,0.15003 -0.0142,0.22402 -0.0783,1.06217 0.002,1.94177 -0.0992,2.76644 -0.24218,1.96485 0.0717,3.11797 -1.07522,3.33132 -1.3878,0.25813 -2.00881,-1.39824 -2.27973,-4.02862 -0.075,-0.72832 -0.0865,-1.54922 -0.0168,-2.44934 0.004,-0.035 0.007,-0.0699 0.0113,-0.10469 0,0 0,0 0,0 0.25034,-2.19716 1.24377,-4.81531 2.67766,-7.14212 0.10917,0.1004 1.70797,0.85079 1.87579,0.98171 0.59542,0.46451 0.79042,1.07665 0.60299,2.22162 0,0 -1e-5,2e-5 -1e-5,2e-5 z"
         id="path6046-3"
         inkscape:connector-curvature="0" />
      <path
         style="display:inline;fill:#009591;fill-opacity:1;fill-rule:evenodd;stroke:none;stroke-width:1.11215699px;stroke-linecap:butt;stroke-linejoin:miter;stroke-opacity:1"
         d="m 184.38101,614.67847 c -1.19131,0.74691 -1.63486,2.08397 -1.66312,3.2239 -0.0217,0.44023 0.0664,1.95504 0.0553,2.22024 -0.0671,1.60152 0.26127,2.58051 -0.6955,2.79246 -1.09098,0.24167 -1.72696,-1.04713 -2.1087,-3.14382 -0.10728,-0.5892 -0.17043,-1.31395 -0.12064,-2.12534 0.19002,-2.23971 1.35487,-4.43683 3.25948,-5.78511 0.16028,0.30903 0.97249,0.87343 1.20623,1.16117 0.37055,0.45613 0.38459,0.87038 0.0669,1.65648 0,0 -10e-6,2e-5 -10e-6,2e-5 z"
         id="path6052-9"
         inkscape:connector-curvature="0" />
    </g>
    <g
       id="g6236"
       inkscape:transform-center-x="0.080375347"
       inkscape:transform-center-y="4.1875808"
       transform="matrix(0.96751937,0.2527969,-0.2527969,0.96751937,166.25903,-64.367464)">
      <path
         inkscape:connector-curvature="0"
         id="path6048-5"
         d="m 329.70577,615.66874 c 1.27169,0.59992 1.87112,1.87474 2.03476,3.00321 0.074,0.43452 0.16655,1.94907 0.20911,2.21107 0.25709,1.58217 0.0475,2.59326 1.02269,2.68991 1.11198,0.1102 1.59016,-1.24509 1.71981,-3.3723 0.0364,-0.59778 0.0129,-1.3249 -0.133,-2.12461 -0.45505,-2.20121 -1.87295,-4.24419 -3.9244,-5.35637 -0.12239,0.32591 -0.86171,0.9829 -1.05957,1.29639 -0.31366,0.49697 -0.27833,0.90995 0.13057,1.65269 0,0 1e-5,10e-6 1e-5,10e-6 z"
         style="display:inline;fill:#009591;fill-opacity:1;fill-rule:evenodd;stroke:none;stroke-width:1.11215699px;stroke-linecap:butt;stroke-linejoin:miter;stroke-opacity:1" />
      <path
         inkscape:connector-curvature="0"
         id="path6050-9"
         d="m 333.37317,615.50464 c 1.38658,0.99126 1.82504,2.64164 1.77548,4.02299 -0.006,0.53427 -0.22399,2.36066 -0.23003,2.68236 -0.0365,1.94271 -0.5057,3.10314 0.63638,3.42988 1.3023,0.37256 2.1665,-1.14013 2.78241,-3.64901 0.17309,-0.70504 0.30273,-1.57732 0.3021,-2.56274 -0.0654,-2.72393 -1.31342,-5.46795 -3.51888,-7.23923 -0.21663,0.36214 -1.24085,0.98538 -1.5448,1.31636 -0.48186,0.52469 -0.52928,1.02488 -0.20267,1.99937 0,0 1e-5,2e-5 1e-5,2e-5 z"
         style="display:inline;fill:#009591;fill-opacity:1;fill-rule:evenodd;stroke:none;stroke-width:1.11215699px;stroke-linecap:butt;stroke-linejoin:miter;stroke-opacity:1" />
    </g>
    <g
       id="g6232"
       inkscape:transform-center-x="-0.35688548"
       inkscape:transform-center-y="4.5140596"
       transform="matrix(0.97907945,-0.20347831,0.20347831,0.97907945,-118.3899,75.718257)">
      <path
         style="display:inline;fill:#009591;fill-opacity:1;fill-rule:evenodd;stroke:none;stroke-width:1.11215699px;stroke-linecap:butt;stroke-linejoin:miter;stroke-opacity:1"
         d="m 309.59147,614.06014 c -1.14805,1.20231 -1.5776,2.83903 -1.68258,4.19964 -0.006,0.0753 -0.0106,0.15003 -0.0142,0.22402 -0.0783,1.06217 0.002,1.94177 -0.0992,2.76644 -0.24218,1.96485 0.0717,3.11797 -1.07522,3.33132 -1.3878,0.25813 -2.00882,-1.39824 -2.27974,-4.02862 -0.075,-0.72832 -0.0865,-1.54922 -0.0168,-2.44934 0.004,-0.035 0.007,-0.0699 0.0113,-0.10469 0,0 0,0 0,0 0.25035,-2.19716 1.24378,-4.81531 2.67766,-7.14212 0.10918,0.1004 1.70798,0.85079 1.8758,0.98171 0.59542,0.46451 0.79042,1.07665 0.60299,2.22162 0,0 -10e-6,2e-5 -10e-6,2e-5 z"
         id="path6046-8"
         inkscape:connector-curvature="0" />
      <path
         style="display:inline;fill:#009591;fill-opacity:1;fill-rule:evenodd;stroke:none;stroke-width:1.11215699px;stroke-linecap:butt;stroke-linejoin:miter;stroke-opacity:1"
         d="m 313.20336,614.67847 c -1.19131,0.74691 -1.63486,2.08397 -1.66312,3.2239 -0.0217,0.44023 0.0664,1.95504 0.0553,2.22024 -0.0671,1.60152 0.26126,2.58051 -0.6955,2.79246 -1.09099,0.24167 -1.72696,-1.04713 -2.10871,-3.14382 -0.10727,-0.5892 -0.17042,-1.31395 -0.12063,-2.12534 0.19001,-2.23971 1.35487,-4.43683 3.25948,-5.78511 0.16028,0.30903 0.97249,0.87343 1.20623,1.16117 0.37054,0.45613 0.38459,0.87038 0.0669,1.65648 0,0 -10e-6,2e-5 -10e-6,2e-5 z"
         id="path6052-6"
         inkscape:connector-curvature="0" />
    </g>
    <g
       id="g4274"
       transform="matrix(0.79748552,0.16907416,-0.38341546,0.75204322,142.69779,542.3538)"
       inkscape:transform-center-y="-2.487577"
       inkscape:transform-center-x="0.026620478">
      <path
         style="fill:#009591;fill-opacity:1;fill-rule:evenodd;stroke:none;stroke-width:0.78527081px;stroke-linecap:round;stroke-linejoin:round;stroke-opacity:1"
         d="m 91.143968,44.466462 c -0.70292,-2.686643 -0.284378,-9.111615 1.037226,-9.48601 1.321594,-0.374395 6.810314,4.424582 6.756385,7.517179 -2.287627,1.773155 -4.965526,2.141327 -7.793611,1.968831 z"
         id="path4276"
         inkscape:connector-curvature="0"
         sodipodi:nodetypes="czcc" />
      <path
         style="fill:#00b5af;fill-opacity:1;fill-rule:evenodd;stroke:none;stroke-width:0.78527081px;stroke-linecap:round;stroke-linejoin:round;stroke-opacity:1"
         d="m 92.474609,34.96875 c -0.112784,-0.01534 -0.210369,-0.01168 -0.292968,0.01172 -1.321604,0.374395 -1.74003,6.799685 -1.03711,9.486328 0.396859,0.02421 0.789407,0.03463 1.179688,0.03516 -0.301122,-3.050939 0.162703,-7.652985 1.277343,-7.96875 0.62723,-0.177688 2.189758,0.826724 3.65625,2.244141 -1.545395,-1.963652 -3.748128,-3.667834 -4.783203,-3.808594 z"
         id="path4278"
         inkscape:connector-curvature="0" />
    </g>
    <path
       style="fill:#008400;fill-opacity:1;fill-rule:evenodd;stroke:none;stroke-width:1.18938947px;stroke-linecap:butt;stroke-linejoin:miter;stroke-opacity:1"
       d="m 165.39236,603.42106 c -1.2118,-0.5013 -2.75946,-0.40502 -3.86917,0.25833 -1.60012,1.24092 -1.57189,2.79209 -1.23986,4.55934 0.0156,0.009 0.0317,0.0168 0.0475,0.0254 l -0.031,0.0339 c -0.006,-0.0199 -0.0112,-0.0392 -0.0164,-0.0593 -1.79619,-1.01339 -2.43542,-3.06151 -2.08512,-4.62789 0.27627,-1.24458 -1.60813,-1.71792 -1.92402,-0.48329 -0.81144,3.96462 1.96901,6.73232 5.37335,7.68695 0.61668,0.67397 1.37973,1.19311 2.23839,1.5299 2.30033,0.90223 5.14837,0.49509 7.26658,-1.26821 0.96857,-0.83271 -0.2985,-2.30288 -1.29282,-1.50002 -1.43669,1.19596 -3.27278,1.51583 -4.78951,1.10995 -0.009,0.002 -0.0165,0.005 -0.0248,0.008 l -4.6e-4,-0.0165 c 0.008,0.003 0.0168,0.006 0.0253,0.008 1.49044,-0.6933 2.51386,-1.9922 2.57134,-3.20112 -0.11814,-1.87441 -0.71407,-3.19326 -2.24917,-4.06393 z m -0.79115,1.77055 c 0.85428,0.4807 1.0736,1.52326 1.06465,2.20843 -0.38922,1.51814 -1.63339,1.5776 -2.92554,1.58106 -0.54841,-0.9316 -0.72187,-2.06544 -0.66164,-2.90838 0.41071,-1.10895 1.65651,-1.01802 2.52253,-0.88111 z"
       id="path4142"
       inkscape:connector-curvature="0"
       sodipodi:nodetypes="cccccccccscccccccccccccc"
       inkscape:transform-center-x="7.5458776"
       inkscape:transform-center-y="-4.7378017" />
    <path
       style="fill:#008400;fill-opacity:1;fill-rule:evenodd;stroke:none;stroke-width:0.89161509px;stroke-linecap:butt;stroke-linejoin:miter;stroke-opacity:1"
       d="m 191.06411,585.30587 c -13.15119,1.07651 -23.14996,10.03885 -22.33243,20.01759 0.81725,9.97813 11.71738,14.82648 24.86774,13.75002 21.24857,-2.57375 18.81387,-6.2861 22.76897,-9.6772 1.06098,-1.71486 2.52001,-9.10949 1.79922,-9.9016 -2.48348,-0.86001 -4.94217,-1.07962 -7.59933,-5.86486 -3.96708,-7.14429 -9.36596,-8.04189 -19.50417,-8.32395 z"
       id="path3336"
       inkscape:connector-curvature="0"
       sodipodi:nodetypes="cccccsc" />
    <circle
       style="fill:#000000;fill-opacity:1;stroke:none;stroke-linecap:round;stroke-linejoin:round"
       id="path4247"
       cx="154.37616"
       cy="611.32904"
       r="2.0835624"
       transform="matrix(0.99666647,-0.08158397,0.08158397,0.99666647,0,0)" />
    <path
       style="fill:#e9afaf;fill-opacity:1;fill-rule:evenodd;stroke:none;stroke-width:0.89161509px;stroke-linecap:butt;stroke-linejoin:miter;stroke-opacity:1"
       d="m 215.93455,610.00518 c 5.00669,-2.66315 4.96852,-7.20261 3.23319,-10.3864 -0.58766,-1.07818 -3.5494,-0.98593 -3.5494,-0.98593 0,0 -0.99454,2.67644 -0.94878,5.42875 0.0645,3.87947 1.26499,5.94358 1.26499,5.94358 z"
       id="path4249"
       inkscape:connector-curvature="0"
       sodipodi:nodetypes="cacsc" />
    <g
       id="g4270"
       transform="matrix(0.78832,-0.20765553,-0.00422234,0.84413185,121.14163,574.50585)">
      <path
         sodipodi:nodetypes="czcc"
         inkscape:connector-curvature="0"
         id="path4245"
         d="m 91.143968,44.466462 c -0.70292,-2.686643 -0.284378,-9.111615 1.037226,-9.48601 1.321594,-0.374395 6.810314,4.424582 6.756385,7.517179 -2.287627,1.773155 -4.965526,2.141327 -7.793611,1.968831 z"
         style="fill:#009591;fill-opacity:1;fill-rule:evenodd;stroke:none;stroke-width:0.78527081px;stroke-linecap:round;stroke-linejoin:round;stroke-opacity:1" />
      <path
         id="path4260"
         d="m 92.474609,34.96875 c -0.112784,-0.01534 -0.210369,-0.01168 -0.292968,0.01172 -1.321604,0.374395 -1.74003,6.799685 -1.03711,9.486328 0.396859,0.02421 0.789407,0.03463 1.179688,0.03516 -0.301122,-3.050939 0.162703,-7.652985 1.277343,-7.96875 0.62723,-0.177688 2.189758,0.826724 3.65625,2.244141 -1.545395,-1.963652 -3.748128,-3.667834 -4.783203,-3.808594 z"
         style="fill:#00b5af;fill-opacity:1;fill-rule:evenodd;stroke:none;stroke-width:0.78527081px;stroke-linecap:round;stroke-linejoin:round;stroke-opacity:1"
         inkscape:connector-curvature="0" />
    </g>
    <path
       style="fill:#008400;fill-opacity:1;fill-rule:evenodd;stroke:#006000;stroke-width:1.56308365;stroke-linecap:round;stroke-linejoin:round;stroke-miterlimit:4;stroke-dasharray:none;stroke-opacity:1"
       d="m 173.29647,596.84151 c 4.89077,-6.41238 10.45603,-6.81095 16.08017,-6.68459"
       id="path5976"
       inkscape:connector-curvature="0"
       sodipodi:nodetypes="cc" />
    <path
       sodipodi:nodetypes="cc"
       inkscape:connector-curvature="0"
       id="path5978"
       d="m 175.45891,601.11264 c 6.41491,-4.88254 10.92254,-5.41942 14.32592,-5.95535"
       style="fill:#008400;fill-opacity:1;fill-rule:evenodd;stroke:#006000;stroke-width:1.3925606;stroke-linecap:round;stroke-linejoin:round;stroke-miterlimit:4;stroke-dasharray:none;stroke-opacity:1" />
    <path
       style="fill:#008400;fill-opacity:1;fill-rule:evenodd;stroke:#006000;stroke-width:1.20089614;stroke-linecap:round;stroke-linejoin:round;stroke-miterlimit:4;stroke-dasharray:none;stroke-opacity:1"
       d="m 177.3339,605.08622 c 5.29845,-1.89023 9.31313,-2.71081 12.35418,-5.13569"
       id="path5980"
       inkscape:connector-curvature="0"
       sodipodi:nodetypes="cc" />
    <g
       inkscape:transform-center-x="0.47675583"
       inkscape:transform-center-y="-2.4909489"
       transform="matrix(0.81375739,0.0486636,-0.26737831,0.800678,266.48204,553.29652)"
       id="g6125">
      <path
         sodipodi:nodetypes="czcc"
         inkscape:connector-curvature="0"
         id="path6127"
         d="m 91.143968,44.466462 c -0.70292,-2.686643 -0.284378,-9.111615 1.037226,-9.48601 1.321594,-0.374395 6.810314,4.424582 6.756385,7.517179 -2.287627,1.773155 -4.965526,2.141327 -7.793611,1.968831 z"
         style="fill:#009591;fill-opacity:1;fill-rule:evenodd;stroke:none;stroke-width:0.78527081px;stroke-linecap:round;stroke-linejoin:round;stroke-opacity:1" />
      <path
         inkscape:connector-curvature="0"
         id="path6129"
         d="m 92.474609,34.96875 c -0.112784,-0.01534 -0.210369,-0.01168 -0.292968,0.01172 -1.321604,0.374395 -1.74003,6.799685 -1.03711,9.486328 0.396859,0.02421 0.789407,0.03463 1.179688,0.03516 -0.301122,-3.050939 0.162703,-7.652985 1.277343,-7.96875 0.62723,-0.177688 2.189758,0.826724 3.65625,2.244141 -1.545395,-1.963652 -3.748128,-3.667834 -4.783203,-3.808594 z"
         style="fill:#00b5af;fill-opacity:1;fill-rule:evenodd;stroke:none;stroke-width:0.78527081px;stroke-linecap:round;stroke-linejoin:round;stroke-opacity:1" />
    </g>
    <path
       inkscape:transform-center-y="-7.7256962"
       inkscape:transform-center-x="25.114565"
       sodipodi:nodetypes="cccccccccscccccccccccccc"
       inkscape:connector-curvature="0"
       id="path6131"
       d="m 294.50598,600.8453 c -1.15021,-0.62991 -2.69917,-0.70223 -3.87435,-0.16329 -1.72539,1.05985 -1.86574,2.60491 -1.72756,4.39777 0.0145,0.0106 0.0297,0.0201 0.0445,0.0304 l -0.0345,0.0303 c -0.004,-0.0204 -0.007,-0.0402 -0.01,-0.0607 -1.67554,-1.20242 -2.08862,-3.30784 -1.57032,-4.82693 0.40977,-1.20722 -1.4121,-1.88236 -1.86017,-0.68933 -1.2371,3.85308 1.22641,6.90631 4.50697,8.22492 0.53986,0.73694 1.24203,1.33586 2.05905,1.76389 2.18877,1.14665 5.06418,1.05114 7.36132,-0.47175 1.05325,-0.72262 -0.0467,-2.32167 -1.12231,-1.63152 -1.55805,1.0329 -3.41802,1.15153 -4.88171,0.58337 -0.009,10e-4 -0.017,0.003 -0.0255,0.005 l 0.001,-0.0164 c 0.008,0.004 0.0161,0.008 0.0243,0.0107 1.55691,-0.52738 2.7153,-1.70748 2.9037,-2.90301 0.0861,-1.87616 -0.36314,-3.25192 -1.79463,-4.28411 z m -0.97871,1.67418 c 0.79704,0.57061 0.90186,1.63082 0.81857,2.31097 -0.55175,1.46691 -1.79502,1.39093 -3.0799,1.25407 -0.44402,-0.98563 -0.49335,-2.1316 -0.34196,-2.96302 0.52869,-1.0578 1.75725,-0.83215 2.60329,-0.60202 z"
       style="fill:#008400;fill-opacity:1;fill-rule:evenodd;stroke:none;stroke-width:1.18938947px;stroke-linecap:butt;stroke-linejoin:miter;stroke-opacity:1" />
    <path
       sodipodi:nodetypes="cccccsc"
       inkscape:connector-curvature="0"
       id="path6133"
       d="m 321.99282,585.62451 c -13.19032,-0.35774 -24.10307,7.466 -24.37382,17.47451 -0.27095,10.00787 10.03833,16.01104 23.22782,16.36875 21.4024,-0.25147 19.38516,-4.20622 23.68507,-7.14785 1.2409,-1.58953 3.49418,-8.78203 2.86365,-9.64771 -2.37542,-1.12457 -4.79573,-1.60984 -6.91763,-6.65529 -3.16793,-7.53278 -8.43744,-9.01126 -18.48509,-10.39241 z"
       style="fill:#008400;fill-opacity:1;fill-rule:evenodd;stroke:none;stroke-width:0.89161509px;stroke-linecap:butt;stroke-linejoin:miter;stroke-opacity:1"
       inkscape:transform-center-x="-4.9568677"
       inkscape:transform-center-y="-9.8192913" />
    <circle
       transform="matrix(0.99963242,0.02711144,-0.02711144,0.99963242,0,0)"
       r="2.0835624"
       cy="588.52881"
       cx="349.07248"
       id="circle6135"
       style="fill:#000000;fill-opacity:1;stroke:none;stroke-linecap:round;stroke-linejoin:round"
       inkscape:transform-center-x="-15.750868"
       inkscape:transform-center-y="-14.035812" />
    <path
       sodipodi:nodetypes="cacsc"
       inkscape:connector-curvature="0"
       id="path6137"
       d="m 344.0345,612.87812 c 5.26625,-2.10381 5.72118,-6.62058 4.34178,-9.97396 -0.46712,-1.13561 -3.42136,-1.36548 -3.42136,-1.36548 0,0 -1.27926,2.55264 -1.5326,5.29365 -0.3571,3.86354 0.61218,6.04579 0.61218,6.04579 z"
       style="fill:#e9afaf;fill-opacity:1;fill-rule:evenodd;stroke:none;stroke-width:0.89161509px;stroke-linecap:butt;stroke-linejoin:miter;stroke-opacity:1"
       inkscape:transform-center-x="-28.590353"
       inkscape:transform-center-y="-5.1511336" />
    <g
       transform="matrix(0.81517221,0.00796931,-0.22706429,0.81303027,258.37139,556.4674)"
       id="g6139"
       inkscape:transform-center-x="-1.8547257"
       inkscape:transform-center-y="-2.0510943">
      <path
         style="fill:#009591;fill-opacity:1;fill-rule:evenodd;stroke:none;stroke-width:0.78527081px;stroke-linecap:round;stroke-linejoin:round;stroke-opacity:1"
         d="m 91.143968,44.466462 c -0.70292,-2.686643 -0.284378,-9.111615 1.037226,-9.48601 1.321594,-0.374395 6.810314,4.424582 6.756385,7.517179 -2.287627,1.773155 -4.965526,2.141327 -7.793611,1.968831 z"
         id="path6141"
         inkscape:connector-curvature="0"
         sodipodi:nodetypes="czcc" />
      <path
         inkscape:connector-curvature="0"
         style="fill:#00b5af;fill-opacity:1;fill-rule:evenodd;stroke:none;stroke-width:0.78527081px;stroke-linecap:round;stroke-linejoin:round;stroke-opacity:1"
         d="m 92.474609,34.96875 c -0.112784,-0.01534 -0.210369,-0.01168 -0.292968,0.01172 -1.321604,0.374395 -1.74003,6.799685 -1.03711,9.486328 0.396859,0.02421 0.789407,0.03463 1.179688,0.03516 -0.301122,-3.050939 0.162703,-7.652985 1.277343,-7.96875 0.62723,-0.177688 2.189758,0.826724 3.65625,2.244141 -1.545395,-1.963652 -3.748128,-3.667834 -4.783203,-3.808594 z"
         id="path6143" />
    </g>
    <path
       sodipodi:nodetypes="cc"
       inkscape:connector-curvature="0"
       id="path6145"
       d="m 303.07774,595.16283 c 5.55808,-5.84345 11.13371,-5.63542 16.71088,-4.89916"
       style="fill:#008400;fill-opacity:1;fill-rule:evenodd;stroke:#006000;stroke-width:1.56308365;stroke-linecap:round;stroke-linejoin:round;stroke-miterlimit:4;stroke-dasharray:none;stroke-opacity:1"
       inkscape:transform-center-x="6.1691883"
       inkscape:transform-center-y="-19.83278" />
    <path
       style="fill:#008400;fill-opacity:1;fill-rule:evenodd;stroke:#006000;stroke-width:1.3925606;stroke-linecap:round;stroke-linejoin:round;stroke-miterlimit:4;stroke-dasharray:none;stroke-opacity:1"
       d="m 304.76365,599.6435 c 6.90711,-4.15717 11.44639,-4.20146 14.88784,-4.3647"
       id="path6147"
       inkscape:connector-curvature="0"
       sodipodi:nodetypes="cc"
       inkscape:transform-center-x="5.3947983"
       inkscape:transform-center-y="-14.898384" />
    <path
       sodipodi:nodetypes="cc"
       inkscape:connector-curvature="0"
       id="path6149"
       d="m 306.19613,603.79717 c 5.47236,-1.30378 9.5524,-1.68361 12.83875,-3.76398"
       style="fill:#008400;fill-opacity:1;fill-rule:evenodd;stroke:#006000;stroke-width:1.20089614;stroke-linecap:round;stroke-linejoin:round;stroke-miterlimit:4;stroke-dasharray:none;stroke-opacity:1"
       inkscape:transform-center-x="4.9868634"
       inkscape:transform-center-y="-10.444354" />
  </g>
  <g
     style="display:inline"
     transform="translate(0,-540.36216)"
     id="g6297"
     inkscape:groupmode="layer"
     inkscape:label="walking left"
     sodipodi:insensitive="true">
    <g
       transform="matrix(-0.951806,-0.30670072,-0.30670072,0.951806,695.05379,220.3637)"
       inkscape:transform-center-y="4.0726156"
       inkscape:transform-center-x="1.6598331"
       id="g6299">
      <path
         style="display:inline;fill:#009591;fill-opacity:1;fill-rule:evenodd;stroke:none;stroke-width:1.11215699px;stroke-linecap:butt;stroke-linejoin:miter;stroke-opacity:1"
         d="m 200.88342,615.66874 c 1.27169,0.59992 1.87112,1.87474 2.03476,3.00321 0.074,0.43452 0.16656,1.94907 0.20911,2.21107 0.25709,1.58217 0.0475,2.59326 1.02269,2.68991 1.11198,0.1102 1.59016,-1.24509 1.71981,-3.3723 0.0364,-0.59778 0.013,-1.3249 -0.133,-2.12461 -0.45504,-2.20121 -1.87295,-4.24419 -3.9244,-5.35637 -0.12238,0.32591 -0.86171,0.9829 -1.05957,1.29639 -0.31366,0.49697 -0.27833,0.90995 0.13057,1.65269 0,0 1e-5,10e-6 1e-5,10e-6 z"
         id="path6301"
         inkscape:connector-curvature="0" />
      <path
         style="display:inline;fill:#009591;fill-opacity:1;fill-rule:evenodd;stroke:none;stroke-width:1.11215699px;stroke-linecap:butt;stroke-linejoin:miter;stroke-opacity:1"
         d="m 204.55082,615.50464 c 1.38658,0.99126 1.82504,2.64164 1.77548,4.02299 -0.006,0.53427 -0.22399,2.36066 -0.23003,2.68236 -0.0365,1.94271 -0.5057,3.10314 0.63638,3.42988 1.3023,0.37256 2.1665,-1.14013 2.78242,-3.64901 0.17308,-0.70504 0.30272,-1.57732 0.3021,-2.56274 -0.0654,-2.72393 -1.31342,-5.46795 -3.51889,-7.23923 -0.21663,0.36214 -1.24084,0.98538 -1.5448,1.31636 -0.48186,0.52469 -0.52928,1.02488 -0.20267,1.99937 0,0 10e-6,2e-5 10e-6,2e-5 z"
         id="path6303"
         inkscape:connector-curvature="0" />
    </g>
    <g
       transform="matrix(-0.89978123,0.43634131,0.43634131,0.89978123,230.98606,110.90042)"
       inkscape:transform-center-y="2.6096172"
       inkscape:transform-center-x="-1.7697349"
       id="g6305">
      <path
         inkscape:connector-curvature="0"
         id="path6307"
         d="m 180.76912,614.06014 c -1.14805,1.20231 -1.57759,2.83903 -1.68258,4.19964 -0.006,0.0753 -0.0106,0.15003 -0.0142,0.22402 -0.0783,1.06217 0.002,1.94177 -0.0992,2.76644 -0.24218,1.96485 0.0717,3.11797 -1.07522,3.33132 -1.3878,0.25813 -2.00881,-1.39824 -2.27973,-4.02862 -0.075,-0.72832 -0.0865,-1.54922 -0.0168,-2.44934 0.004,-0.035 0.007,-0.0699 0.0113,-0.10469 0,0 0,0 0,0 0.25034,-2.19716 1.24377,-4.81531 2.67766,-7.14212 0.10917,0.1004 1.70797,0.85079 1.87579,0.98171 0.59542,0.46451 0.79042,1.07665 0.60299,2.22162 0,0 -1e-5,2e-5 -1e-5,2e-5 z"
         style="display:inline;fill:#009591;fill-opacity:1;fill-rule:evenodd;stroke:none;stroke-width:1.11215699px;stroke-linecap:butt;stroke-linejoin:miter;stroke-opacity:1" />
      <path
         inkscape:connector-curvature="0"
         id="path6309"
         d="m 184.38101,614.67847 c -1.19131,0.74691 -1.63486,2.08397 -1.66312,3.2239 -0.0217,0.44023 0.0664,1.95504 0.0553,2.22024 -0.0671,1.60152 0.26127,2.58051 -0.6955,2.79246 -1.09098,0.24167 -1.72696,-1.04713 -2.1087,-3.14382 -0.10728,-0.5892 -0.17043,-1.31395 -0.12064,-2.12534 0.19002,-2.23971 1.35487,-4.43683 3.25948,-5.78511 0.16028,0.30903 0.97249,0.87343 1.20623,1.16117 0.37055,0.45613 0.38459,0.87038 0.0669,1.65648 0,0 -10e-6,2e-5 -10e-6,2e-5 z"
         style="display:inline;fill:#009591;fill-opacity:1;fill-rule:evenodd;stroke:none;stroke-width:1.11215699px;stroke-linecap:butt;stroke-linejoin:miter;stroke-opacity:1" />
    </g>
    <g
       transform="matrix(-0.96751937,0.2527969,0.2527969,0.96751937,350.33199,63.632536)"
       inkscape:transform-center-y="4.1875808"
       inkscape:transform-center-x="-0.080372515"
       id="g6311">
      <path
         style="display:inline;fill:#009591;fill-opacity:1;fill-rule:evenodd;stroke:none;stroke-width:1.11215699px;stroke-linecap:butt;stroke-linejoin:miter;stroke-opacity:1"
         d="m 329.70577,615.66874 c 1.27169,0.59992 1.87112,1.87474 2.03476,3.00321 0.074,0.43452 0.16655,1.94907 0.20911,2.21107 0.25709,1.58217 0.0475,2.59326 1.02269,2.68991 1.11198,0.1102 1.59016,-1.24509 1.71981,-3.3723 0.0364,-0.59778 0.0129,-1.3249 -0.133,-2.12461 -0.45505,-2.20121 -1.87295,-4.24419 -3.9244,-5.35637 -0.12239,0.32591 -0.86171,0.9829 -1.05957,1.29639 -0.31366,0.49697 -0.27833,0.90995 0.13057,1.65269 0,0 1e-5,10e-6 1e-5,10e-6 z"
         id="path6313"
         inkscape:connector-curvature="0" />
      <path
         style="display:inline;fill:#009591;fill-opacity:1;fill-rule:evenodd;stroke:none;stroke-width:1.11215699px;stroke-linecap:butt;stroke-linejoin:miter;stroke-opacity:1"
         d="m 333.37317,615.50464 c 1.38658,0.99126 1.82504,2.64164 1.77548,4.02299 -0.006,0.53427 -0.22399,2.36066 -0.23003,2.68236 -0.0365,1.94271 -0.5057,3.10314 0.63638,3.42988 1.3023,0.37256 2.1665,-1.14013 2.78241,-3.64901 0.17309,-0.70504 0.30273,-1.57732 0.3021,-2.56274 -0.0654,-2.72393 -1.31342,-5.46795 -3.51888,-7.23923 -0.21663,0.36214 -1.24085,0.98538 -1.5448,1.31636 -0.48186,0.52469 -0.52928,1.02488 -0.20267,1.99937 0,0 1e-5,2e-5 1e-5,2e-5 z"
         id="path6315"
         inkscape:connector-curvature="0" />
    </g>
    <g
       transform="matrix(-0.97907945,-0.20347831,-0.20347831,0.97907945,634.98092,203.71826)"
       inkscape:transform-center-y="4.5140596"
       inkscape:transform-center-x="0.35688831"
       id="g6317">
      <path
         inkscape:connector-curvature="0"
         id="path6319"
         d="m 309.59147,614.06014 c -1.14805,1.20231 -1.5776,2.83903 -1.68258,4.19964 -0.006,0.0753 -0.0106,0.15003 -0.0142,0.22402 -0.0783,1.06217 0.002,1.94177 -0.0992,2.76644 -0.24218,1.96485 0.0717,3.11797 -1.07522,3.33132 -1.3878,0.25813 -2.00882,-1.39824 -2.27974,-4.02862 -0.075,-0.72832 -0.0865,-1.54922 -0.0168,-2.44934 0.004,-0.035 0.007,-0.0699 0.0113,-0.10469 0,0 0,0 0,0 0.25035,-2.19716 1.24378,-4.81531 2.67766,-7.14212 0.10918,0.1004 1.70798,0.85079 1.8758,0.98171 0.59542,0.46451 0.79042,1.07665 0.60299,2.22162 0,0 -10e-6,2e-5 -10e-6,2e-5 z"
         style="display:inline;fill:#009591;fill-opacity:1;fill-rule:evenodd;stroke:none;stroke-width:1.11215699px;stroke-linecap:butt;stroke-linejoin:miter;stroke-opacity:1" />
      <path
         inkscape:connector-curvature="0"
         id="path6321"
         d="m 313.20336,614.67847 c -1.19131,0.74691 -1.63486,2.08397 -1.66312,3.2239 -0.0217,0.44023 0.0664,1.95504 0.0553,2.22024 -0.0671,1.60152 0.26126,2.58051 -0.6955,2.79246 -1.09099,0.24167 -1.72696,-1.04713 -2.10871,-3.14382 -0.10727,-0.5892 -0.17042,-1.31395 -0.12063,-2.12534 0.19001,-2.23971 1.35487,-4.43683 3.25948,-5.78511 0.16028,0.30903 0.97249,0.87343 1.20623,1.16117 0.37054,0.45613 0.38459,0.87038 0.0669,1.65648 0,0 -10e-6,2e-5 -10e-6,2e-5 z"
         style="display:inline;fill:#009591;fill-opacity:1;fill-rule:evenodd;stroke:none;stroke-width:1.11215699px;stroke-linecap:butt;stroke-linejoin:miter;stroke-opacity:1" />
    </g>
    <g
       inkscape:transform-center-x="-0.026617646"
       inkscape:transform-center-y="-2.487577"
       transform="matrix(-0.79748552,0.16907416,0.38341546,0.75204322,373.89323,670.3538)"
       id="g6323">
      <path
         sodipodi:nodetypes="czcc"
         inkscape:connector-curvature="0"
         id="path6325"
         d="m 91.143968,44.466462 c -0.70292,-2.686643 -0.284378,-9.111615 1.037226,-9.48601 1.321594,-0.374395 6.810314,4.424582 6.756385,7.517179 -2.287627,1.773155 -4.965526,2.141327 -7.793611,1.968831 z"
         style="fill:#009591;fill-opacity:1;fill-rule:evenodd;stroke:none;stroke-width:0.78527081px;stroke-linecap:round;stroke-linejoin:round;stroke-opacity:1" />
      <path
         inkscape:connector-curvature="0"
         id="path6327"
         d="m 92.474609,34.96875 c -0.112784,-0.01534 -0.210369,-0.01168 -0.292968,0.01172 -1.321604,0.374395 -1.74003,6.799685 -1.03711,9.486328 0.396859,0.02421 0.789407,0.03463 1.179688,0.03516 -0.301122,-3.050939 0.162703,-7.652985 1.277343,-7.96875 0.62723,-0.177688 2.189758,0.826724 3.65625,2.244141 -1.545395,-1.963652 -3.748128,-3.667834 -4.783203,-3.808594 z"
         style="fill:#00b5af;fill-opacity:1;fill-rule:evenodd;stroke:none;stroke-width:0.78527081px;stroke-linecap:round;stroke-linejoin:round;stroke-opacity:1" />
    </g>
    <path
       inkscape:transform-center-y="-4.7378017"
       inkscape:transform-center-x="-7.5458748"
       sodipodi:nodetypes="cccccccccscccccccccccccc"
       inkscape:connector-curvature="0"
       id="path6329"
       d="m 351.19866,731.42106 c 1.2118,-0.5013 2.75946,-0.40502 3.86917,0.25833 1.60012,1.24092 1.57189,2.79209 1.23986,4.55934 -0.0156,0.009 -0.0317,0.0168 -0.0475,0.0254 l 0.031,0.0339 c 0.006,-0.0199 0.0112,-0.0392 0.0164,-0.0593 1.79619,-1.01339 2.43542,-3.06151 2.08512,-4.62789 -0.27627,-1.24458 1.60813,-1.71792 1.92402,-0.48329 0.81144,3.96462 -1.96901,6.73232 -5.37335,7.68695 -0.61668,0.67397 -1.37973,1.19311 -2.23839,1.5299 -2.30033,0.90223 -5.14837,0.49509 -7.26658,-1.26821 -0.96857,-0.83271 0.2985,-2.30288 1.29282,-1.50002 1.43669,1.19596 3.27278,1.51583 4.78951,1.10995 0.009,0.002 0.0165,0.005 0.0248,0.008 l 4.6e-4,-0.0165 c -0.008,0.003 -0.0168,0.006 -0.0253,0.008 -1.49044,-0.6933 -2.51386,-1.9922 -2.57134,-3.20112 0.11814,-1.87441 0.71407,-3.19326 2.24917,-4.06393 z m 0.79115,1.77055 c -0.85428,0.4807 -1.0736,1.52326 -1.06465,2.20843 0.38922,1.51814 1.63339,1.5776 2.92554,1.58106 0.54841,-0.9316 0.72187,-2.06544 0.66164,-2.90838 -0.41071,-1.10895 -1.65651,-1.01802 -2.52253,-0.88111 z"
       style="fill:#008400;fill-opacity:1;fill-rule:evenodd;stroke:none;stroke-width:1.18938947px;stroke-linecap:butt;stroke-linejoin:miter;stroke-opacity:1" />
    <path
       sodipodi:nodetypes="cccccsc"
       inkscape:connector-curvature="0"
       id="path6331"
       d="m 325.52691,713.30587 c 13.15119,1.07651 23.14996,10.03885 22.33243,20.01759 -0.81725,9.97813 -11.71738,14.82648 -24.86774,13.75002 -21.24857,-2.57375 -18.81387,-6.2861 -22.76897,-9.6772 -1.06098,-1.71486 -2.52001,-9.10949 -1.79922,-9.9016 2.48348,-0.86001 4.94217,-1.07962 7.59933,-5.86486 3.96708,-7.14429 9.36596,-8.04189 19.50417,-8.32395 z"
       style="fill:#008400;fill-opacity:1;fill-rule:evenodd;stroke:none;stroke-width:0.89161509px;stroke-linecap:butt;stroke-linejoin:miter;stroke-opacity:1" />
    <circle
       transform="matrix(-0.99666647,-0.08158397,-0.08158397,0.99666647,0,0)"
       r="2.0835624"
       cy="696.75684"
       cx="-370.93552"
       id="circle6333"
       style="fill:#000000;fill-opacity:1;stroke:none;stroke-linecap:round;stroke-linejoin:round" />
    <path
       sodipodi:nodetypes="cacsc"
       inkscape:connector-curvature="0"
       id="path6335"
       d="m 300.65647,738.00518 c -5.00669,-2.66315 -4.96852,-7.20261 -3.23319,-10.3864 0.58766,-1.07818 3.5494,-0.98593 3.5494,-0.98593 0,0 0.99454,2.67644 0.94878,5.42875 -0.0645,3.87947 -1.26499,5.94358 -1.26499,5.94358 z"
       style="fill:#e9afaf;fill-opacity:1;fill-rule:evenodd;stroke:none;stroke-width:0.89161509px;stroke-linecap:butt;stroke-linejoin:miter;stroke-opacity:1" />
    <g
       transform="matrix(-0.78832,-0.20765553,0.00422234,0.84413185,395.44939,702.50585)"
       id="g6337">
      <path
         style="fill:#009591;fill-opacity:1;fill-rule:evenodd;stroke:none;stroke-width:0.78527081px;stroke-linecap:round;stroke-linejoin:round;stroke-opacity:1"
         d="m 91.143968,44.466462 c -0.70292,-2.686643 -0.284378,-9.111615 1.037226,-9.48601 1.321594,-0.374395 6.810314,4.424582 6.756385,7.517179 -2.287627,1.773155 -4.965526,2.141327 -7.793611,1.968831 z"
         id="path6339"
         inkscape:connector-curvature="0"
         sodipodi:nodetypes="czcc" />
      <path
         inkscape:connector-curvature="0"
         style="fill:#00b5af;fill-opacity:1;fill-rule:evenodd;stroke:none;stroke-width:0.78527081px;stroke-linecap:round;stroke-linejoin:round;stroke-opacity:1"
         d="m 92.474609,34.96875 c -0.112784,-0.01534 -0.210369,-0.01168 -0.292968,0.01172 -1.321604,0.374395 -1.74003,6.799685 -1.03711,9.486328 0.396859,0.02421 0.789407,0.03463 1.179688,0.03516 -0.301122,-3.050939 0.162703,-7.652985 1.277343,-7.96875 0.62723,-0.177688 2.189758,0.826724 3.65625,2.244141 -1.545395,-1.963652 -3.748128,-3.667834 -4.783203,-3.808594 z"
         id="path6341" />
    </g>
    <path
       sodipodi:nodetypes="cc"
       inkscape:connector-curvature="0"
       id="path6343"
       d="m 343.29455,724.84151 c -4.89077,-6.41238 -10.45603,-6.81095 -16.08017,-6.68459"
       style="fill:#008400;fill-opacity:1;fill-rule:evenodd;stroke:#006000;stroke-width:1.56308365;stroke-linecap:round;stroke-linejoin:round;stroke-miterlimit:4;stroke-dasharray:none;stroke-opacity:1" />
    <path
       style="fill:#008400;fill-opacity:1;fill-rule:evenodd;stroke:#006000;stroke-width:1.3925606;stroke-linecap:round;stroke-linejoin:round;stroke-miterlimit:4;stroke-dasharray:none;stroke-opacity:1"
       d="m 341.13211,729.11264 c -6.41491,-4.88254 -10.92254,-5.41942 -14.32592,-5.95535"
       id="path6345"
       inkscape:connector-curvature="0"
       sodipodi:nodetypes="cc" />
    <path
       sodipodi:nodetypes="cc"
       inkscape:connector-curvature="0"
       id="path6347"
       d="m 339.25712,733.08622 c -5.29845,-1.89023 -9.31313,-2.71081 -12.35418,-5.13569"
       style="fill:#008400;fill-opacity:1;fill-rule:evenodd;stroke:#006000;stroke-width:1.20089614;stroke-linecap:round;stroke-linejoin:round;stroke-miterlimit:4;stroke-dasharray:none;stroke-opacity:1" />
    <g
       id="g6349"
       transform="matrix(-0.81375739,0.0486636,0.26737831,0.800678,250.10898,681.29652)"
       inkscape:transform-center-y="-2.4909489"
       inkscape:transform-center-x="-0.476753">
      <path
         style="fill:#009591;fill-opacity:1;fill-rule:evenodd;stroke:none;stroke-width:0.78527081px;stroke-linecap:round;stroke-linejoin:round;stroke-opacity:1"
         d="m 91.143968,44.466462 c -0.70292,-2.686643 -0.284378,-9.111615 1.037226,-9.48601 1.321594,-0.374395 6.810314,4.424582 6.756385,7.517179 -2.287627,1.773155 -4.965526,2.141327 -7.793611,1.968831 z"
         id="path6351"
         inkscape:connector-curvature="0"
         sodipodi:nodetypes="czcc" />
      <path
         style="fill:#00b5af;fill-opacity:1;fill-rule:evenodd;stroke:none;stroke-width:0.78527081px;stroke-linecap:round;stroke-linejoin:round;stroke-opacity:1"
         d="m 92.474609,34.96875 c -0.112784,-0.01534 -0.210369,-0.01168 -0.292968,0.01172 -1.321604,0.374395 -1.74003,6.799685 -1.03711,9.486328 0.396859,0.02421 0.789407,0.03463 1.179688,0.03516 -0.301122,-3.050939 0.162703,-7.652985 1.277343,-7.96875 0.62723,-0.177688 2.189758,0.826724 3.65625,2.244141 -1.545395,-1.963652 -3.748128,-3.667834 -4.783203,-3.808594 z"
         id="path6353"
         inkscape:connector-curvature="0" />
    </g>
    <path
       style="fill:#008400;fill-opacity:1;fill-rule:evenodd;stroke:none;stroke-width:1.18938947px;stroke-linecap:butt;stroke-linejoin:miter;stroke-opacity:1"
       d="m 222.08504,728.8453 c 1.15021,-0.62991 2.69917,-0.70223 3.87435,-0.16329 1.72539,1.05985 1.86574,2.60491 1.72756,4.39777 -0.0145,0.0106 -0.0297,0.0201 -0.0445,0.0304 l 0.0345,0.0303 c 0.004,-0.0204 0.007,-0.0402 0.01,-0.0607 1.67554,-1.20242 2.08862,-3.30784 1.57032,-4.82693 -0.40977,-1.20722 1.4121,-1.88236 1.86017,-0.68933 1.2371,3.85308 -1.22641,6.90631 -4.50697,8.22492 -0.53986,0.73694 -1.24203,1.33586 -2.05905,1.76389 -2.18877,1.14665 -5.06418,1.05114 -7.36132,-0.47175 -1.05325,-0.72262 0.0467,-2.32167 1.12231,-1.63152 1.55805,1.0329 3.41802,1.15153 4.88171,0.58337 0.009,10e-4 0.017,0.003 0.0255,0.005 l -0.001,-0.0164 c -0.008,0.004 -0.0161,0.008 -0.0243,0.0107 -1.55691,-0.52738 -2.7153,-1.70748 -2.9037,-2.90301 -0.0861,-1.87616 0.36314,-3.25192 1.79463,-4.28411 z m 0.97871,1.67418 c -0.79704,0.57061 -0.90186,1.63082 -0.81857,2.31097 0.55175,1.46691 1.79502,1.39093 3.0799,1.25407 0.44402,-0.98563 0.49335,-2.1316 0.34196,-2.96302 -0.52869,-1.0578 -1.75725,-0.83215 -2.60329,-0.60202 z"
       id="path6355"
       inkscape:connector-curvature="0"
       sodipodi:nodetypes="cccccccccscccccccccccccc"
       inkscape:transform-center-x="-25.114562"
       inkscape:transform-center-y="-7.7256962" />
    <path
       inkscape:transform-center-y="-9.8192913"
       inkscape:transform-center-x="4.9568705"
       style="fill:#008400;fill-opacity:1;fill-rule:evenodd;stroke:none;stroke-width:0.89161509px;stroke-linecap:butt;stroke-linejoin:miter;stroke-opacity:1"
       d="m 194.5982,713.62451 c 13.19032,-0.35774 24.10307,7.466 24.37382,17.47451 0.27095,10.00787 -10.03833,16.01104 -23.22782,16.36875 -21.4024,-0.25147 -19.38516,-4.20622 -23.68507,-7.14785 -1.2409,-1.58953 -3.49418,-8.78203 -2.86365,-9.64771 2.37542,-1.12457 4.79573,-1.60984 6.91763,-6.65529 3.16793,-7.53278 8.43744,-9.01126 18.48509,-10.39241 z"
       id="path6357"
       inkscape:connector-curvature="0"
       sodipodi:nodetypes="cccccsc" />
    <circle
       inkscape:transform-center-y="-14.035831"
       inkscape:transform-center-x="15.750865"
       style="fill:#000000;fill-opacity:1;stroke:none;stroke-linecap:round;stroke-linejoin:round"
       id="circle6359"
       cx="-163.85838"
       cy="730.48724"
       r="2.0835624"
       transform="matrix(-0.99963242,0.02711144,0.02711144,0.99963242,0,0)" />
    <path
       inkscape:transform-center-y="-5.1511336"
       inkscape:transform-center-x="28.590356"
       style="fill:#e9afaf;fill-opacity:1;fill-rule:evenodd;stroke:none;stroke-width:0.89161509px;stroke-linecap:butt;stroke-linejoin:miter;stroke-opacity:1"
       d="m 172.55652,740.87812 c -5.26625,-2.10381 -5.72118,-6.62058 -4.34178,-9.97396 0.46712,-1.13561 3.42136,-1.36548 3.42136,-1.36548 0,0 1.27926,2.55264 1.5326,5.29365 0.3571,3.86354 -0.61218,6.04579 -0.61218,6.04579 z"
       id="path6361"
       inkscape:connector-curvature="0"
       sodipodi:nodetypes="cacsc" />
    <g
       inkscape:transform-center-y="-2.0510943"
       inkscape:transform-center-x="1.8547285"
       id="g6363"
       transform="matrix(-0.81517221,0.00796931,0.22706429,0.81303027,258.21963,684.4674)">
      <path
         sodipodi:nodetypes="czcc"
         inkscape:connector-curvature="0"
         id="path6365"
         d="m 91.143968,44.466462 c -0.70292,-2.686643 -0.284378,-9.111615 1.037226,-9.48601 1.321594,-0.374395 6.810314,4.424582 6.756385,7.517179 -2.287627,1.773155 -4.965526,2.141327 -7.793611,1.968831 z"
         style="fill:#009591;fill-opacity:1;fill-rule:evenodd;stroke:none;stroke-width:0.78527081px;stroke-linecap:round;stroke-linejoin:round;stroke-opacity:1" />
      <path
         id="path6367"
         d="m 92.474609,34.96875 c -0.112784,-0.01534 -0.210369,-0.01168 -0.292968,0.01172 -1.321604,0.374395 -1.74003,6.799685 -1.03711,9.486328 0.396859,0.02421 0.789407,0.03463 1.179688,0.03516 -0.301122,-3.050939 0.162703,-7.652985 1.277343,-7.96875 0.62723,-0.177688 2.189758,0.826724 3.65625,2.244141 -1.545395,-1.963652 -3.748128,-3.667834 -4.783203,-3.808594 z"
         style="fill:#00b5af;fill-opacity:1;fill-rule:evenodd;stroke:none;stroke-width:0.78527081px;stroke-linecap:round;stroke-linejoin:round;stroke-opacity:1"
         inkscape:connector-curvature="0" />
    </g>
    <path
       inkscape:transform-center-y="-19.83278"
       inkscape:transform-center-x="-6.1691855"
       style="fill:#008400;fill-opacity:1;fill-rule:evenodd;stroke:#006000;stroke-width:1.56308365;stroke-linecap:round;stroke-linejoin:round;stroke-miterlimit:4;stroke-dasharray:none;stroke-opacity:1"
       d="m 213.51328,723.16283 c -5.55808,-5.84345 -11.13371,-5.63542 -16.71088,-4.89916"
       id="path6369"
       inkscape:connector-curvature="0"
       sodipodi:nodetypes="cc" />
    <path
       inkscape:transform-center-y="-14.898384"
       inkscape:transform-center-x="-5.3947955"
       sodipodi:nodetypes="cc"
       inkscape:connector-curvature="0"
       id="path6371"
       d="m 211.82737,727.6435 c -6.90711,-4.15717 -11.44639,-4.20146 -14.88784,-4.3647"
       style="fill:#008400;fill-opacity:1;fill-rule:evenodd;stroke:#006000;stroke-width:1.3925606;stroke-linecap:round;stroke-linejoin:round;stroke-miterlimit:4;stroke-dasharray:none;stroke-opacity:1" />
    <path
       inkscape:transform-center-y="-10.444354"
       inkscape:transform-center-x="-4.9868606"
       style="fill:#008400;fill-opacity:1;fill-rule:evenodd;stroke:#006000;stroke-width:1.20089614;stroke-linecap:round;stroke-linejoin:round;stroke-miterlimit:4;stroke-dasharray:none;stroke-opacity:1"
       d="m 210.39489,731.79717 c -5.47236,-1.30378 -9.5524,-1.68361 -12.83875,-3.76398"
       id="path6373"
       inkscape:connector-curvature="0"
       sodipodi:nodetypes="cc" />
  </g>
  <g
     transform="translate(0,-540.36216)"
     id="g6042"
     inkscape:groupmode="layer"
     inkscape:label="idle right"
     style="display:inline"
     sodipodi:insensitive="true">
    <g
       id="g6240">
      <path
         style="fill:#009591;fill-opacity:1;fill-rule:evenodd;stroke:none;stroke-width:1.11215699px;stroke-linecap:butt;stroke-linejoin:miter;stroke-opacity:1"
         d="m 50.764839,613.30697 c -1.148047,1.20231 -1.577592,2.83903 -1.682577,4.19964 -0.0058,0.0753 -0.01056,0.15003 -0.01421,0.22402 -0.07828,1.06217 0.0025,1.94177 -0.09916,2.76644 -0.242182,1.96485 0.07171,3.11797 -1.075222,3.33132 -1.3878,0.25813 -2.008814,-1.39824 -2.279733,-4.02862 -0.07502,-0.72832 -0.08646,-1.54922 -0.01681,-2.44934 0.0036,-0.035 0.0073,-0.0699 0.01128,-0.10469 0,0 0,0 0,0 0.250343,-2.19716 1.243773,-4.81531 2.677659,-7.14212 0.109175,0.1004 1.707977,0.85079 1.875797,0.98171 0.595421,0.46451 0.79042,1.07665 0.602985,2.22162 0,0 -8e-6,2e-5 -8e-6,2e-5 z"
         id="path6046"
         inkscape:connector-curvature="0" />
      <path
         inkscape:connector-curvature="0"
         id="path6048"
         d="m 70.879143,614.91557 c 1.271688,0.59992 1.871122,1.87474 2.034755,3.00321 0.07397,0.43452 0.166559,1.94907 0.20911,2.21107 0.257095,1.58217 0.0475,2.59326 1.022696,2.68991 1.111979,0.1102 1.590154,-1.24509 1.71981,-3.3723 0.03644,-0.59778 0.01295,-1.3249 -0.133003,-2.12461 -0.455045,-2.20121 -1.872947,-4.24419 -3.924399,-5.35637 -0.122385,0.32591 -0.861711,0.9829 -1.059567,1.29639 -0.313665,0.49697 -0.278333,0.90995 0.130563,1.65269 0,0 1e-5,10e-6 1e-5,10e-6 z"
         style="fill:#009591;fill-opacity:1;fill-rule:evenodd;stroke:none;stroke-width:1.11215699px;stroke-linecap:butt;stroke-linejoin:miter;stroke-opacity:1" />
      <path
         inkscape:connector-curvature="0"
         id="path6050"
         d="m 74.54654,614.75147 c 1.38658,0.99126 1.825041,2.64164 1.775485,4.02299 -0.0057,0.53427 -0.223996,2.36066 -0.230037,2.68236 -0.03652,1.94271 -0.5057,3.10314 0.636387,3.42988 1.302297,0.37256 2.166494,-1.14013 2.782411,-3.64901 0.173085,-0.70504 0.302728,-1.57732 0.302101,-2.56274 -0.06538,-2.72393 -1.31342,-5.46795 -3.518889,-7.23923 -0.216626,0.36214 -1.240841,0.98538 -1.544798,1.31636 -0.481859,0.52469 -0.529276,1.02488 -0.20267,1.99937 0,0 10e-6,2e-5 10e-6,2e-5 z"
         style="fill:#009591;fill-opacity:1;fill-rule:evenodd;stroke:none;stroke-width:1.11215699px;stroke-linecap:butt;stroke-linejoin:miter;stroke-opacity:1" />
      <path
         style="fill:#009591;fill-opacity:1;fill-rule:evenodd;stroke:none;stroke-width:1.11215699px;stroke-linecap:butt;stroke-linejoin:miter;stroke-opacity:1"
         d="m 54.376735,613.9253 c -1.191313,0.74691 -1.634867,2.08397 -1.663121,3.2239 -0.02174,0.44023 0.06644,1.95504 0.05533,2.22024 -0.06706,1.60152 0.261262,2.58051 -0.695504,2.79246 -1.090983,0.24167 -1.726962,-1.04713 -2.108703,-3.14382 -0.107277,-0.5892 -0.170426,-1.31395 -0.120637,-2.12534 0.190016,-2.23971 1.354868,-4.43683 3.259481,-5.78511 0.160278,0.30903 0.972493,0.87343 1.206233,1.16117 0.370543,0.45613 0.384587,0.87038 0.06693,1.65648 0,0 -9e-6,2e-5 -9e-6,2e-5 z"
         id="path6052"
         inkscape:connector-curvature="0" />
      <g
         id="g6054"
         transform="matrix(0.81521115,0,-0.21910544,0.81521115,6.3745007,556.24862)">
        <path
           style="fill:#009591;fill-opacity:1;fill-rule:evenodd;stroke:none;stroke-width:0.78527081px;stroke-linecap:round;stroke-linejoin:round;stroke-opacity:1"
           d="m 91.143968,44.466462 c -0.70292,-2.686643 -0.284378,-9.111615 1.037226,-9.48601 1.321594,-0.374395 6.810314,4.424582 6.756385,7.517179 -2.287627,1.773155 -4.965526,2.141327 -7.793611,1.968831 z"
           id="path6056"
           inkscape:connector-curvature="0"
           sodipodi:nodetypes="czcc" />
        <path
           style="fill:#00b5af;fill-opacity:1;fill-rule:evenodd;stroke:none;stroke-width:0.78527081px;stroke-linecap:round;stroke-linejoin:round;stroke-opacity:1"
           d="m 92.474609,34.96875 c -0.112784,-0.01534 -0.210369,-0.01168 -0.292968,0.01172 -1.321604,0.374395 -1.74003,6.799685 -1.03711,9.486328 0.396859,0.02421 0.789407,0.03463 1.179688,0.03516 -0.301122,-3.050939 0.162703,-7.652985 1.277343,-7.96875 0.62723,-0.177688 2.189758,0.826724 3.65625,2.244141 -1.545395,-1.963652 -3.748128,-3.667834 -4.783203,-3.808594 z"
           id="path6058"
           inkscape:connector-curvature="0" />
      </g>
      <path
         style="fill:#008400;fill-opacity:1;fill-rule:evenodd;stroke:none;stroke-width:1.18938947px;stroke-linecap:butt;stroke-linejoin:miter;stroke-opacity:1"
         d="m 37.390077,601.56682 c -1.166865,-0.5985 -2.717217,-0.6288 -3.877345,-0.0582 -1.696024,1.10624 -1.794436,2.65454 -1.607694,4.44299 0.01489,0.01 0.03027,0.0193 0.04527,0.0291 l -0.03373,0.0313 c -0.0035,-0.0203 -0.0082,-0.04 -0.01154,-0.0604 -1.707527,-1.15655 -2.177545,-3.25 -1.70061,-4.78258 0.37689,-1.21788 -1.462619,-1.84339 -1.878174,-0.63865 -1.132192,3.88521 1.413189,6.87052 4.728298,8.09971 0.559638,0.72203 1.277798,1.30169 2.106116,1.70741 2.219043,1.0869 5.090815,0.91347 7.345814,-0.67114 1.033289,-0.75092 -0.109623,-2.31955 -1.166133,-1.60049 -1.529468,1.07476 -3.385522,1.24376 -4.864082,0.7155 -0.0085,0.002 -0.01693,0.004 -0.02543,0.006 l 8.97e-4,-0.0165 c 0.0083,0.003 0.01617,0.007 0.02455,0.0101 1.542045,-0.56939 2.668025,-1.78046 2.823932,-2.98066 0.03522,-1.8778 -0.451169,-3.24088 -1.910122,-4.23388 z m -0.932959,1.7001 c 0.812215,0.54879 0.945735,1.60577 0.880928,2.28792 -0.511781,1.48133 -1.756646,1.43909 -3.044773,1.33711 -0.47058,-0.97323 -0.550962,-2.11744 -0.422155,-2.95265 0.499809,-1.07176 1.734037,-0.87949 2.586,-0.67238 z"
         id="path6060"
         inkscape:connector-curvature="0"
         sodipodi:nodetypes="cccccccccscccccccccccccc"
         inkscape:transform-center-x="7.1284669"
         inkscape:transform-center-y="-5.4926528" />
      <path
         style="fill:#008400;fill-opacity:1;fill-rule:evenodd;stroke:none;stroke-width:0.89161509px;stroke-linecap:butt;stroke-linejoin:miter;stroke-opacity:1"
         d="m 64.454152,585.60641 c -13.195171,0 -23.891784,8.11673 -23.8911,18.1289 4.75e-4,10.01154 10.468719,15.733 23.66307,15.73299 21.387709,-0.83162 19.263995,-4.73024 23.482574,-7.78736 1.197349,-1.62258 3.254804,-8.87353 2.601037,-9.7218 -2.405052,-1.05976 -4.837618,-1.47922 -7.095516,-6.46529 -3.371004,-7.44413 -8.67865,-8.7792 -18.760065,-9.88744 z"
         id="path6062"
         inkscape:connector-curvature="0"
         sodipodi:nodetypes="cccccsc" />
      <circle
         style="fill:#000000;fill-opacity:1;stroke:none;stroke-linecap:round;stroke-linejoin:round"
         id="circle6064"
         cx="76.154709"
         cy="597.99298"
         r="2.0835624" />
      <path
         style="fill:#e9afaf;fill-opacity:1;fill-rule:evenodd;stroke:none;stroke-width:0.89161509px;stroke-linecap:butt;stroke-linejoin:miter;stroke-opacity:1"
         d="m 87.226621,612.25242 c 5.207275,-2.24581 5.53958,-6.77325 4.069787,-10.088 -0.497744,-1.12253 -3.45714,-1.27222 -3.45714,-1.27222 0,0 -1.209569,2.58638 -1.388508,5.33325 -0.252251,3.8718 0.775861,6.02697 0.775861,6.02697 z"
         id="path6066"
         inkscape:connector-curvature="0"
         sodipodi:nodetypes="cacsc" />
      <g
         id="g6068"
         transform="matrix(0.81521115,0,-0.21910544,0.81521115,0.60775323,557.2761)">
        <path
           sodipodi:nodetypes="czcc"
           inkscape:connector-curvature="0"
           id="path6070"
           d="m 91.143968,44.466462 c -0.70292,-2.686643 -0.284378,-9.111615 1.037226,-9.48601 1.321594,-0.374395 6.810314,4.424582 6.756385,7.517179 -2.287627,1.773155 -4.965526,2.141327 -7.793611,1.968831 z"
           style="fill:#009591;fill-opacity:1;fill-rule:evenodd;stroke:none;stroke-width:0.78527081px;stroke-linecap:round;stroke-linejoin:round;stroke-opacity:1" />
        <path
           id="path6072"
           d="m 92.474609,34.96875 c -0.112784,-0.01534 -0.210369,-0.01168 -0.292968,0.01172 -1.321604,0.374395 -1.74003,6.799685 -1.03711,9.486328 0.396859,0.02421 0.789407,0.03463 1.179688,0.03516 -0.301122,-3.050939 0.162703,-7.652985 1.277343,-7.96875 0.62723,-0.177688 2.189758,0.826724 3.65625,2.244141 -1.545395,-1.963652 -3.748128,-3.667834 -4.783203,-3.808594 z"
           style="fill:#00b5af;fill-opacity:1;fill-rule:evenodd;stroke:none;stroke-width:0.78527081px;stroke-linecap:round;stroke-linejoin:round;stroke-opacity:1"
           inkscape:connector-curvature="0" />
      </g>
      <path
         style="fill:#008400;fill-opacity:1;fill-rule:evenodd;stroke:#006000;stroke-width:1.56308365;stroke-linecap:round;stroke-linejoin:round;stroke-miterlimit:4;stroke-dasharray:none;stroke-opacity:1"
         d="m 45.80463,595.65405 c 5.397603,-5.992 10.976833,-5.93521 16.571918,-5.35043"
         id="path6074"
         inkscape:connector-curvature="0"
         sodipodi:nodetypes="cc" />
      <path
         sodipodi:nodetypes="cc"
         inkscape:connector-curvature="0"
         id="path6076"
         d="m 47.611406,600.08736 c 6.791861,-4.34291 11.328259,-4.51025 14.76402,-4.76673"
         style="fill:#008400;fill-opacity:1;fill-rule:evenodd;stroke:#006000;stroke-width:1.3925606;stroke-linecap:round;stroke-linejoin:round;stroke-miterlimit:4;stroke-dasharray:none;stroke-opacity:1" />
      <path
         style="fill:#008400;fill-opacity:1;fill-rule:evenodd;stroke:#006000;stroke-width:1.20089614;stroke-linecap:round;stroke-linejoin:round;stroke-miterlimit:4;stroke-dasharray:none;stroke-opacity:1"
         d="m 49.155963,604.20066 c 5.435001,-1.45166 9.503245,-1.94197 12.731981,-4.11067"
         id="path6078"
         inkscape:connector-curvature="0"
         sodipodi:nodetypes="cc" />
    </g>
  </g>
  <g
     style="display:inline"
     inkscape:label="idle left"
     inkscape:groupmode="layer"
     id="g6259"
     transform="translate(0,-540.36216)"
     sodipodi:insensitive="true">
    <g
       id="g6261"
       transform="matrix(-1,0,0,1,131.46037,128)">
      <path
         inkscape:connector-curvature="0"
         id="path6263"
         d="m 50.764839,613.30697 c -1.148047,1.20231 -1.577592,2.83903 -1.682577,4.19964 -0.0058,0.0753 -0.01056,0.15003 -0.01421,0.22402 -0.07828,1.06217 0.0025,1.94177 -0.09916,2.76644 -0.242182,1.96485 0.07171,3.11797 -1.075222,3.33132 -1.3878,0.25813 -2.008814,-1.39824 -2.279733,-4.02862 -0.07502,-0.72832 -0.08646,-1.54922 -0.01681,-2.44934 0.0036,-0.035 0.0073,-0.0699 0.01128,-0.10469 0,0 0,0 0,0 0.250343,-2.19716 1.243773,-4.81531 2.677659,-7.14212 0.109175,0.1004 1.707977,0.85079 1.875797,0.98171 0.595421,0.46451 0.79042,1.07665 0.602985,2.22162 0,0 -8e-6,2e-5 -8e-6,2e-5 z"
         style="fill:#009591;fill-opacity:1;fill-rule:evenodd;stroke:none;stroke-width:1.11215699px;stroke-linecap:butt;stroke-linejoin:miter;stroke-opacity:1" />
      <path
         style="fill:#009591;fill-opacity:1;fill-rule:evenodd;stroke:none;stroke-width:1.11215699px;stroke-linecap:butt;stroke-linejoin:miter;stroke-opacity:1"
         d="m 70.879143,614.91557 c 1.271688,0.59992 1.871122,1.87474 2.034755,3.00321 0.07397,0.43452 0.166559,1.94907 0.20911,2.21107 0.257095,1.58217 0.0475,2.59326 1.022696,2.68991 1.111979,0.1102 1.590154,-1.24509 1.71981,-3.3723 0.03644,-0.59778 0.01295,-1.3249 -0.133003,-2.12461 -0.455045,-2.20121 -1.872947,-4.24419 -3.924399,-5.35637 -0.122385,0.32591 -0.861711,0.9829 -1.059567,1.29639 -0.313665,0.49697 -0.278333,0.90995 0.130563,1.65269 0,0 1e-5,10e-6 1e-5,10e-6 z"
         id="path6265"
         inkscape:connector-curvature="0" />
      <path
         style="fill:#009591;fill-opacity:1;fill-rule:evenodd;stroke:none;stroke-width:1.11215699px;stroke-linecap:butt;stroke-linejoin:miter;stroke-opacity:1"
         d="m 74.54654,614.75147 c 1.38658,0.99126 1.825041,2.64164 1.775485,4.02299 -0.0057,0.53427 -0.223996,2.36066 -0.230037,2.68236 -0.03652,1.94271 -0.5057,3.10314 0.636387,3.42988 1.302297,0.37256 2.166494,-1.14013 2.782411,-3.64901 0.173085,-0.70504 0.302728,-1.57732 0.302101,-2.56274 -0.06538,-2.72393 -1.31342,-5.46795 -3.518889,-7.23923 -0.216626,0.36214 -1.240841,0.98538 -1.544798,1.31636 -0.481859,0.52469 -0.529276,1.02488 -0.20267,1.99937 0,0 10e-6,2e-5 10e-6,2e-5 z"
         id="path6267"
         inkscape:connector-curvature="0" />
      <path
         inkscape:connector-curvature="0"
         id="path6269"
         d="m 54.376735,613.9253 c -1.191313,0.74691 -1.634867,2.08397 -1.663121,3.2239 -0.02174,0.44023 0.06644,1.95504 0.05533,2.22024 -0.06706,1.60152 0.261262,2.58051 -0.695504,2.79246 -1.090983,0.24167 -1.726962,-1.04713 -2.108703,-3.14382 -0.107277,-0.5892 -0.170426,-1.31395 -0.120637,-2.12534 0.190016,-2.23971 1.354868,-4.43683 3.259481,-5.78511 0.160278,0.30903 0.972493,0.87343 1.206233,1.16117 0.370543,0.45613 0.384587,0.87038 0.06693,1.65648 0,0 -9e-6,2e-5 -9e-6,2e-5 z"
         style="fill:#009591;fill-opacity:1;fill-rule:evenodd;stroke:none;stroke-width:1.11215699px;stroke-linecap:butt;stroke-linejoin:miter;stroke-opacity:1" />
      <g
         transform="matrix(0.81521115,0,-0.21910544,0.81521115,6.3745007,556.24862)"
         id="g6271">
        <path
           sodipodi:nodetypes="czcc"
           inkscape:connector-curvature="0"
           id="path6273"
           d="m 91.143968,44.466462 c -0.70292,-2.686643 -0.284378,-9.111615 1.037226,-9.48601 1.321594,-0.374395 6.810314,4.424582 6.756385,7.517179 -2.287627,1.773155 -4.965526,2.141327 -7.793611,1.968831 z"
           style="fill:#009591;fill-opacity:1;fill-rule:evenodd;stroke:none;stroke-width:0.78527081px;stroke-linecap:round;stroke-linejoin:round;stroke-opacity:1" />
        <path
           inkscape:connector-curvature="0"
           id="path6275"
           d="m 92.474609,34.96875 c -0.112784,-0.01534 -0.210369,-0.01168 -0.292968,0.01172 -1.321604,0.374395 -1.74003,6.799685 -1.03711,9.486328 0.396859,0.02421 0.789407,0.03463 1.179688,0.03516 -0.301122,-3.050939 0.162703,-7.652985 1.277343,-7.96875 0.62723,-0.177688 2.189758,0.826724 3.65625,2.244141 -1.545395,-1.963652 -3.748128,-3.667834 -4.783203,-3.808594 z"
           style="fill:#00b5af;fill-opacity:1;fill-rule:evenodd;stroke:none;stroke-width:0.78527081px;stroke-linecap:round;stroke-linejoin:round;stroke-opacity:1" />
      </g>
      <path
         inkscape:transform-center-y="-5.4926528"
         inkscape:transform-center-x="7.1284669"
         sodipodi:nodetypes="cccccccccscccccccccccccc"
         inkscape:connector-curvature="0"
         id="path6277"
         d="m 37.390077,601.56682 c -1.166865,-0.5985 -2.717217,-0.6288 -3.877345,-0.0582 -1.696024,1.10624 -1.794436,2.65454 -1.607694,4.44299 0.01489,0.01 0.03027,0.0193 0.04527,0.0291 l -0.03373,0.0313 c -0.0035,-0.0203 -0.0082,-0.04 -0.01154,-0.0604 -1.707527,-1.15655 -2.177545,-3.25 -1.70061,-4.78258 0.37689,-1.21788 -1.462619,-1.84339 -1.878174,-0.63865 -1.132192,3.88521 1.413189,6.87052 4.728298,8.09971 0.559638,0.72203 1.277798,1.30169 2.106116,1.70741 2.219043,1.0869 5.090815,0.91347 7.345814,-0.67114 1.033289,-0.75092 -0.109623,-2.31955 -1.166133,-1.60049 -1.529468,1.07476 -3.385522,1.24376 -4.864082,0.7155 -0.0085,0.002 -0.01693,0.004 -0.02543,0.006 l 8.97e-4,-0.0165 c 0.0083,0.003 0.01617,0.007 0.02455,0.0101 1.542045,-0.56939 2.668025,-1.78046 2.823932,-2.98066 0.03522,-1.8778 -0.451169,-3.24088 -1.910122,-4.23388 z m -0.932959,1.7001 c 0.812215,0.54879 0.945735,1.60577 0.880928,2.28792 -0.511781,1.48133 -1.756646,1.43909 -3.044773,1.33711 -0.47058,-0.97323 -0.550962,-2.11744 -0.422155,-2.95265 0.499809,-1.07176 1.734037,-0.87949 2.586,-0.67238 z"
         style="fill:#008400;fill-opacity:1;fill-rule:evenodd;stroke:none;stroke-width:1.18938947px;stroke-linecap:butt;stroke-linejoin:miter;stroke-opacity:1" />
      <path
         sodipodi:nodetypes="cccccsc"
         inkscape:connector-curvature="0"
         id="path6279"
         d="m 64.454152,585.60641 c -13.195171,0 -23.891784,8.11673 -23.8911,18.1289 4.75e-4,10.01154 10.468719,15.733 23.66307,15.73299 21.387709,-0.83162 19.263995,-4.73024 23.482574,-7.78736 1.197349,-1.62258 3.254804,-8.87353 2.601037,-9.7218 -2.405052,-1.05976 -4.837618,-1.47922 -7.095516,-6.46529 -3.371004,-7.44413 -8.67865,-8.7792 -18.760065,-9.88744 z"
         style="fill:#008400;fill-opacity:1;fill-rule:evenodd;stroke:none;stroke-width:0.89161509px;stroke-linecap:butt;stroke-linejoin:miter;stroke-opacity:1" />
      <circle
         r="2.0835624"
         cy="597.99298"
         cx="76.154709"
         id="circle6281"
         style="fill:#000000;fill-opacity:1;stroke:none;stroke-linecap:round;stroke-linejoin:round" />
      <path
         sodipodi:nodetypes="cacsc"
         inkscape:connector-curvature="0"
         id="path6283"
         d="m 87.226621,612.25242 c 5.207275,-2.24581 5.53958,-6.77325 4.069787,-10.088 -0.497744,-1.12253 -3.45714,-1.27222 -3.45714,-1.27222 0,0 -1.209569,2.58638 -1.388508,5.33325 -0.252251,3.8718 0.775861,6.02697 0.775861,6.02697 z"
         style="fill:#e9afaf;fill-opacity:1;fill-rule:evenodd;stroke:none;stroke-width:0.89161509px;stroke-linecap:butt;stroke-linejoin:miter;stroke-opacity:1" />
      <g
         transform="matrix(0.81521115,0,-0.21910544,0.81521115,0.60775323,557.2761)"
         id="g6285">
        <path
           style="fill:#009591;fill-opacity:1;fill-rule:evenodd;stroke:none;stroke-width:0.78527081px;stroke-linecap:round;stroke-linejoin:round;stroke-opacity:1"
           d="m 91.143968,44.466462 c -0.70292,-2.686643 -0.284378,-9.111615 1.037226,-9.48601 1.321594,-0.374395 6.810314,4.424582 6.756385,7.517179 -2.287627,1.773155 -4.965526,2.141327 -7.793611,1.968831 z"
           id="path6287"
           inkscape:connector-curvature="0"
           sodipodi:nodetypes="czcc" />
        <path
           inkscape:connector-curvature="0"
           style="fill:#00b5af;fill-opacity:1;fill-rule:evenodd;stroke:none;stroke-width:0.78527081px;stroke-linecap:round;stroke-linejoin:round;stroke-opacity:1"
           d="m 92.474609,34.96875 c -0.112784,-0.01534 -0.210369,-0.01168 -0.292968,0.01172 -1.321604,0.374395 -1.74003,6.799685 -1.03711,9.486328 0.396859,0.02421 0.789407,0.03463 1.179688,0.03516 -0.301122,-3.050939 0.162703,-7.652985 1.277343,-7.96875 0.62723,-0.177688 2.189758,0.826724 3.65625,2.244141 -1.545395,-1.963652 -3.748128,-3.667834 -4.783203,-3.808594 z"
           id="path6289" />
      </g>
      <path
         sodipodi:nodetypes="cc"
         inkscape:connector-curvature="0"
         id="path6291"
         d="m 45.80463,595.65405 c 5.397603,-5.992 10.976833,-5.93521 16.571918,-5.35043"
         style="fill:#008400;fill-opacity:1;fill-rule:evenodd;stroke:#006000;stroke-width:1.56308365;stroke-linecap:round;stroke-linejoin:round;stroke-miterlimit:4;stroke-dasharray:none;stroke-opacity:1" />
      <path
         style="fill:#008400;fill-opacity:1;fill-rule:evenodd;stroke:#006000;stroke-width:1.3925606;stroke-linecap:round;stroke-linejoin:round;stroke-miterlimit:4;stroke-dasharray:none;stroke-opacity:1"
         d="m 47.611406,600.08736 c 6.791861,-4.34291 11.328259,-4.51025 14.76402,-4.76673"
         id="path6293"
         inkscape:connector-curvature="0"
         sodipodi:nodetypes="cc" />
      <path
         sodipodi:nodetypes="cc"
         inkscape:connector-curvature="0"
         id="path6295"
         d="m 49.155963,604.20066 c 5.435001,-1.45166 9.503245,-1.94197 12.731981,-4.11067"
         style="fill:#008400;fill-opacity:1;fill-rule:evenodd;stroke:#006000;stroke-width:1.20089614;stroke-linecap:round;stroke-linejoin:round;stroke-miterlimit:4;stroke-dasharray:none;stroke-opacity:1" />
    </g>
  </g>
</svg>
